<svg xmlns="http://www.w3.org/2000/svg" viewBox="0 0 708.66 87.94"><g data-name="レイヤー 2"><path d="M22.59 14.84V7a41.31 41.31 0 00-.33-5.55c4.95.38 6.43.66 6.43 1.26 0 .44-.44.72-2.25 1.6v10.53h10.49c1.27-1.81 1.66-2.36 3-4.12 2.53 1.92 3.3 2.53 5.66 4.61.17.23.27.33.27.45s-.21.33-.66.33H26.44V29h9.45c1.21-1.76 1.6-2.31 3-4.07 2.36 1.87 3.08 2.48 5.44 4.51a.87.87 0 01.28.44c0 .22-.28.38-.77.38h-17.4v15.5h13.08A52.19 52.19 0 0043 41.5c2.64 2 3.47 2.63 6.1 4.78a.71.71 0 01.28.38c0 .22-.33.39-.66.39H5.88a32.5 32.5 0 00-5.33.38L0 45.29a26.82 26.82 0 005.83.49h16.76v-15.5H10.88a26 26 0 00-4.39.33l-.44-2a24.3 24.3 0 004.83.44h11.71V16.11H10.45a54.56 54.56 0 01-9.24 12l-.66-.55a59.51 59.51 0 008-15.17 39.72 39.72 0 002.3-7.81c5.23 1.65 6.27 2.09 6.27 2.64s-.6.71-2.47.88c-1.38 3-2 4.23-3.47 6.76zM73 48.48c0 .49-.11.66-.55.82a11.49 11.49 0 01-2.25.22c-.77 0-1-.16-1-.88.11-4.67.16-15.72.16-29.07 0-6.21-.11-13.69-.27-15.94A27.9 27.9 0 0173.72 6h32.87c1-1.21 1.37-1.59 2.47-2.69 1.6 1.15 2.09 1.54 3.63 2.69a1 1 0 01.44.77c0 .44-.27.66-2.09 1.6L111 19.73c0 11.16.16 20.89.44 28.58-.17.77-.88 1-2.86 1-.93 0-1.26-.17-1.32-.83v-4.12H73zm15.28-25V7.26H73v16.21zm0 1.32H73v18.3h15.29zm19-17.53H91.86v16.2h15.39zM91.86 24.79v18.3h15.39v-18.3zm39.43-.66a37.43 37.43 0 007.2.44H171c1.54-2.09 2.09-2.69 3.79-4.67 2.81 2.2 3.69 2.91 6.38 5.27a.64.64 0 01.17.33c0 .17-.23.33-.61.33h-42.24a41.44 41.44 0 00-6.82.39zm77.35 6.76a41.51 41.51 0 01-11.26 8l-.44-.55c7.42-5.88 12.14-11.1 16.1-17.58h-9.84c-1 0-4.23.16-5.71.27l-.44-2a51.11 51.11 0 006.21.44h10.49a30.92 30.92 0 002.92-6.15l2.75.77c2.47.66 3.18.93 3.18 1.37s-.44.66-3.08 1.15c-.76 1.38-.93 1.65-1.64 2.86h20.83c1.87-2 1.87-2 3.74-4.12 2.25 1.92 2.91 2.53 5.05 4.62.06.16.16.33.16.38a.46.46 0 01-.43.39h-30.18a48.89 48.89 0 01-6 7.69c.6.39.88.55 1.7 1h9.07c-.06-4.06-.06-4.06-.16-6.2 5.1.38 6.2.6 6.2 1.09s-.6.77-2.36 1.27c0 .82-.05 1.32-.05 1.65l.05.66v1.53H236c.93-1 1.26-1.31 2.25-2.25 1.38 1 1.76 1.38 3 2.47.38.45.49.61.49.77s-.22.44-1.76 1.32v6c0 .77 0 .77.06 4.46v2a3 3 0 01-1.6 2.8 9 9 0 01-4 1.21c-.39-1.54-.77-2.2-1.6-2.69s-1.26-.61-4.78-1.21v-.77c3.52.28 4.67.39 7.59.49.6 0 .66-.1.66-.71V30.78h-10.85v10c0 2.64.06 4 .28 9.24v.27a.66.66 0 01-.44.61 12.78 12.78 0 01-3 .27c-.45 0-.66-.16-.66-.55 0-3.24.16-11.49.16-16.65v-3.19h-9.46v9.78l.06 4.45v2.15c0 .88-.39 1-2.86 1-.71 0-.93-.11-1-.66 0-1.65.11-7.64.11-8.91zm0-29.35a124.58 124.58 0 0114.73 5.33c4.68-2.75 6.87-4.34 9.29-6.87 1.05.55 1.93 1 2.47 1.32 2.59 1.37 2.92 1.59 2.92 2a.46.46 0 01-.39.38l-2.8.17c-3.63 2.25-4.67 2.8-7.91 4.56 3.9 1.76 6.59 3.3 7.2 4a7 7 0 011.31 4c0 .72-.38 1.27-.82 1.27s-.88-.28-2.58-1.71c-1.38-1.15-5.72-4.23-8.36-5.93a83.46 83.46 0 01-21.43 6.59l-.28-.87a86.74 86.74 0 0018.69-7.48 125.76 125.76 0 00-12.42-5.94zm53.44 48.2a31.63 31.63 0 007.48-10.83 35.56 35.56 0 01-4.07-9 8.25 8.25 0 00-1.43-3.19l2.31-.71a2.55 2.55 0 00-.11.82c0 2.2 1.87 6.76 4.12 10.17a49.83 49.83 0 003.25-15.06h-5.28c-.27.44-.44.83-.6 1.05-.33.6-.66.76-1.82.82h-.6c-.88 0-1.38-.22-1.38-.66V23a141.57 141.57 0 007.92-17.26h-5.66a11.92 11.92 0 00-3.13.38l-.5-2c.5 0 1.7.22 3.63.38h5.66a27.87 27.87 0 012-2.36c1.6 1.26 2.09 1.65 3.63 2.8.16.17.22.28.22.39 0 .38-.22.55-2.53 1.54-2.2 5.44-3.35 8-6.27 13.85h4.46c.82-1.1 1.1-1.43 2-2.53 1.48 1 1.92 1.37 3.35 2.53.38.33.5.49.5.6 0 .28-.72.83-2.2 1.65-1.16 8.35-1.93 11.1-4.57 16.49a15.21 15.21 0 004.29 3.08c4.07 2.09 9.07 3 16.71 3 5.49 0 11.27-.27 20.83-.87v.71a5.07 5.07 0 00-2.91 1.54 3.32 3.32 0 00-.72 2.42c-3.52.22-5.82.27-9.4.27-11.65 0-17.42-.77-22.7-3.13a22.29 22.29 0 01-7.2-5.11 27.85 27.85 0 01-8.73 9zm46.34-36.6a36.48 36.48 0 012.2-3.25 39.08 39.08 0 013 3.58 1.61 1.61 0 01.28.6.32.32 0 01-.34.33h-5.93c0 .83.06 1.48.06 1.48 0 5.28 0 5.28.1 6.77 0 .76-.27.93-1.76 1a9.15 9.15 0 01-1.15.16h-.11c-.44 0-.66-.27-.66-.82v-1.22h-8.35l.05 6.26h8c1.15-1.32 1.48-1.76 2.58-3.13 1.92 1.43 2.58 1.92 4.62 3.68a1.51 1.51 0 01.22.39c0 .16-.22.33-.55.33h-14.9l.06 6h8.9c1.32-1.59 1.76-2 2.92-3.57 1.81 1.54 2.47 2.14 4.61 4a1 1 0 01.17.38.55.55 0 01-.55.5h-16c0 3.62 0 4.94.05 6.87a.63.63 0 01-.38.44 25.85 25.85 0 01-2.7.21c-.38 0-.49-.1-.6-.38 0-1.21 0-1.21.11-5.77v-1.37h-9.18a21.82 21.82 0 00-4.28.32l-.72-1.93a23.62 23.62 0 005 .33h9.23v-6h-8a19.61 19.61 0 00-3.9.33l-.52-2.12a29.64 29.64 0 004.45.49h8v-6.26h-6.64a16.23 16.23 0 00-4.07.38l-.74-2.09c1.54.22 3.74.44 4.56.44h6.87v-6.1h-9.23a16.35 16.35 0 00-4.28.44l-.61-2.2a25.24 25.24 0 004.89.5h9.18V7h-7.2a19.87 19.87 0 00-3.25.28l-.6-2a28.59 28.59 0 003.85.5h7.14c0-2.09 0-2.09-.16-5.22a28.88 28.88 0 015.22.82.45.45 0 01.33.44c0 .5-.44.77-2 1.21v2.69h8.46a20.66 20.66 0 011.71-2.37c1.54 1.05 2 1.38 3.29 2.37a.58.58 0 01.28.49 1 1 0 01-.28.61c-.05 0-.27.16-.65.44a4.43 4.43 0 00-.89.55v1.48l.06 2.09v1.76zM304.13 7h-8.41v6.16h8.41zm-8.41 7.42l.06 6.1h8.35V14.4zm50.92-8.15c.93-1.1 1.81-2.15 2.63-3.08 1.82 1.54 2.31 2 4 3.63a.72.72 0 01.22.38c0 .22-.22.33-.61.33h-11.36c3.08 1.81 4.24 2.91 4.24 4.12s-1.1 2.7-1.87 2.7c-.5 0-.72-.39-1-1.6a17.28 17.28 0 00-2.31-5.22h-3.3a38.51 38.51 0 01-9.23 9.23l-.55-.49a36 36 0 006.81-9.95 21 21 0 002.09-6c5.11 1 6.27 1.32 6.27 1.87s-.38.6-2.58.93a32.9 32.9 0 01-1.93 3.14zm22.58 28.3c1.27-1.54 1.6-2 2.81-3.41 2.2 1.65 2.86 2.15 5 3.91a.79.79 0 01.22.49c0 .17-.22.28-.45.28h-21.53a28.24 28.24 0 007.25 4.89c4.84 2.36 8.36 3.19 16.1 3.79v.82a3.69 3.69 0 00-2.52 1.32 4 4 0 00-1.38 2.26A34.47 34.47 0 01363 43.81a32 32 0 01-8.52-7.53v4.56c0 1.92.11 6.32.22 9-.05.39-.11.55-.38.72a8.85 8.85 0 01-2.48.33.8.8 0 01-.88-.66c.22-6.54.22-6.66.22-9.4v-3.57c-3.24 3.3-6.7 5.61-12.53 8.52a55.78 55.78 0 01-10.5 4l-.33-.77a86 86 0 0013.3-7.2 41.08 41.08 0 007.1-5.93h-13a27 27 0 00-4.78.49L330 34a19.86 19.86 0 005.17.55h16v-1.13a31.58 31.58 0 00-.22-3.74c2 .22 4.51.55 5.12.66.38.11.6.27.6.55 0 .44-.6.71-2.2 1.1v2.58zM335.64 17.2a18.94 18.94 0 00-3.51.39l-.39-2.2a15.25 15.25 0 003.9.55h9.68c.88-1.1 1.15-1.43 2.09-2.47 1.43 1.32 1.86 1.7 3.13 3a.69.69 0 01.16.38.48.48 0 01-.38.33h-8.14v7.64c2.42-.44 2.81-.55 7.7-1.59l.12.77a90.75 90.75 0 01-9.61 3.25c-6.27 1.76-6.27 1.76-7.92 2.2-.22 1.59-.44 2.08-.88 2.08s-.44 0-2-5.11c2.2-.05 2.2-.05 9.35-1V17.2zm32.93 8.91v.49c0 .44.71.66 2.08.66 2 0 2.75-.22 3.19-1 .44-.93.72-2 2.09-8.13l.77.05-.28 6.82a4.57 4.57 0 01-.05.6v.22c0 .55.17.72.77.83a1.28 1.28 0 011.15 1.21c0 .88-.71 1.48-2.08 1.7a31.93 31.93 0 01-4.73.33 23.64 23.64 0 01-4.89-.27 2.35 2.35 0 01-1.32-2.26V16.65H356a24.12 24.12 0 01-.66 6.21c-.77 2.81-3 5.39-6.33 7.42a20 20 0 01-5.93 2.64l-.44-.66c4.17-2.08 6.49-3.95 8.19-6.48 1.48-2.25 2-4.67 2-9.67a22.32 22.32 0 00-.22-2.92c1.75.94 2.31 1.21 3.9 2.2h8.63c.77-.88 1-1.15 1.76-2l2.8 2.09c.44.33.6.55.6.71 0 .33-.54.72-1.75 1.27zm1.26-19.84c1.32-1.65 1.71-2.15 3-3.69 2.09 1.76 2.69 2.31 4.67 4.18.17.17.28.28.28.39s-.28.38-.44.38H362c2.8 1.65 3.85 2.75 3.85 3.85 0 1.26-1.27 3.13-2 3.13-.38 0-.6-.27-.71-.93a14.85 14.85 0 00-2.09-6h-3.51a34.74 34.74 0 01-7.15 7l-.55-.55A28.61 28.61 0 00355 6.1a19 19 0 002-5.66c2 .44 2 .44 4.94 1 .67.17 1 .39 1 .66 0 .5-.61.72-2.58.94a28.26 28.26 0 01-2 3.19zm-12.75 13.19c3.9 2.09 6.32 4.39 6.32 6 0 1.27-1 2.92-1.82 2.92-.43 0-.54-.17-1-1.43-.94-2.92-1.49-3.91-3.79-7.15zm36.73-9.07a24.94 24.94 0 005.89.55h10c.88-1 1.81-2.09 2.69-3.13a58 58 0 014.67 3.57 1.68 1.68 0 01.22.49c0 .22-.22.33-.6.33h-17a25.71 25.71 0 00-5.39.39zm2.09-7a20.22 20.22 0 004.56.55h7A88.31 88.31 0 01410.1.81a56.11 56.11 0 014.4 3.63 1.45 1.45 0 01.22.44c0 .22-.22.33-.55.33h-13.71a35.49 35.49 0 00-4.17.27zm.66 21.44a18.51 18.51 0 004.67.55h5.17a28.85 28.85 0 012.8-3.13c1.87 1.48 2.42 1.92 4.13 3.46a2.19 2.19 0 01.32.55.41.41 0 01-.38.38h-12a27.33 27.33 0 00-4.23.28zm.05-7.15a21.52 21.52 0 004.62.5h5.83C408 17 408.93 16 409.81 15c1.86 1.54 2.47 2 4.17 3.63a1.08 1.08 0 01.22.49c0 .17-.22.33-.6.33h-12.37a20.33 20.33 0 00-4.17.33zm3.63 32.27c-.05.44-.22.55-.6.66a9.67 9.67 0 01-1.81.16c-.83 0-1.1-.22-1.22-.82.17-6.1.17-7.42.17-9.62 0-2.91 0-7.09-.17-9.73 1.87 1 2.37 1.37 4.07 2.47h7.48l2.09-2.25a24.79 24.79 0 012.91 2.18 1.75 1.75 0 01.66.94c0 .33-.22.49-1.76 1.43-.05 1.26-.05 2-.05 2.8 0 1.54.1 7.14.16 8.57-.06.39-.11.55-.39.66a7.09 7.09 0 01-2.52.39c-.66 0-.83-.17-.83-.66v-.88h-8.19zm0-4.9h8.19V34.3h-8.19zm45.13 1.27a4 4 0 00-2.31 1.15 5.2 5.2 0 00-1.76 2.86 40 40 0 01-13.13-8.79c-5.12 4.5-10.39 7.31-18 9.56l-.33-.82a50.69 50.69 0 0016.34-10.98 31.77 31.77 0 01-6.26-13.41h-1a13.11 13.11 0 00-2.75.33l-.44-2.15a20.7 20.7 0 005.11.5h13.47c.93-1 1.26-1.38 2.14-2.36 1.81 1.26 2.36 1.64 4 2.91.39.33.55.55.55.77s-.71.66-2.75 1.26c-3 6.21-4.89 9-7.91 12.2 4.29 3.25 8.3 4.78 15.11 6zm-31.83-22.79c4.9-5 6.27-9.07 6.27-18.58a34.57 34.57 0 00-.22-3.79 33.49 33.49 0 014.18 2.74h7.31c.93-1 1.26-1.37 2.2-2.47 1.42 1.1 1.86 1.43 3.07 2.47.5.5.61.72.61.94 0 .38-.33.66-2 1.54v10c0 .93.21 1 3 1 1.76 0 2.31-.17 2.75-.77s.6-1.32 2.31-8l.72.05-.5 7.09v.22c0 .82.05.88 1.15 1.43a1.33 1.33 0 01.66 1.15c0 1.54-1.48 1.93-7.42 1.93-3.52 0-4.61-.11-5.28-.5s-.93-1.1-.93-2.53v-.16c.06-1.43.06-1.93.06-3.41V5.17h-7.92c-.38 6.81-.93 9.34-2.8 12.36a19 19 0 01-6.76 6.54zm7.7 2.3a24 24 0 006.81 11.55c2.86-3.36 4.46-6.16 6.49-11.55zm38.82-14.95a27.07 27.07 0 004.78.44h11.87c1.32-1.48 1.76-2 3.08-3.41 2 1.65 2.64 2.2 4.51 3.91a.72.72 0 01.22.38.47.47 0 01-.39.39h-19.56a23.84 23.84 0 00-4.18.27zm2.31 7.37a21 21 0 004.29.44h7.09c1.21-1.32 1.54-1.76 2.75-3a36.56 36.56 0 014.12 3.47.77.77 0 01.22.49c0 .17-.22.33-.44.33h-13.74c-1.65 0-2.37.06-4 .17zm.16-14.84a26.77 26.77 0 004.13.38h7.58a43.36 43.36 0 013.08-3.24l4.45 3.57c.22.28.33.44.33.55s-.22.39-.55.39h-14.89a26.46 26.46 0 00-3.8.22zm0 22.37a15.74 15.74 0 004.13.38h7.2l2.8-3.3c1.76 1.54 2.31 2 4 3.63.22.28.32.44.32.55a.42.42 0 01-.43.39h-13.89a33.92 33.92 0 00-3.85.22zm4.07 23.47c0 .88-.49 1-2.86 1-.66 0-.88-.16-.93-.71.11-2.75.22-9.51.22-14.57a40.18 40.18 0 00-.22-4.18c1.87 1.16 2.42 1.54 4.23 2.86h7.86c.77-.88 1.6-1.76 2.36-2.64l3.3 2.64a2 2 0 01.11.33 1.3 1.3 0 01.11.39c0 .33-.6 1-1.7 1.76v1.57c0 4.07.05 9.18.16 10.89-.05.49-.16.71-.6.82a13.08 13.08 0 01-2.25.22c-.61 0-.89-.22-.94-.71v-2.37h-8.85zm0-4h8.85V35h-8.85zM502.33 20a41 41 0 013.57-4.17c2.14 1.75 2.8 2.3 4.78 4.17a1.34 1.34 0 01.33.72c0 .27-.33.49-.66.49h-13.58c0 15.34 0 17.42.34 28.09-.06.44-.17.66-.5.77a11 11 0 01-2.8.33c-.77 0-1.05-.17-1.05-.77.17-6.49.28-14.9.28-24.85 0-.44 0-2-.06-3.57h-6.76a27.55 27.55 0 00-4.45.28l-.33-2a22.39 22.39 0 004.78.49H493c-.05-15.5-.05-16.1-.44-18.47 1.27.11 2.26.17 2.86.23 2.91.21 3.8.43 3.8 1s-.28.66-2.43 1.43V20zm49.6.78v4.45h12c.82-.94 1.1-1.21 2-2.15 1.49.94 1.93 1.27 3.3 2.26.33.27.5.44.5.66s-.17.49-1.6 1.37l.06 4.23h1c1.32-1.42 1.71-1.87 3-3.29 1.81 1.54 2.36 2 4.12 3.73.22.22.33.39.33.5s-.22.33-.49.33h-8c.06 4.94.11 8.13.17 9.45 0 .39-.11.55-.39.66a13.65 13.65 0 01-2.64.28c-.6 0-.88-.17-.88-.55v-3.08H552a22.8 22.8 0 01.06 2.69l.11 4.07c0 1.48-.06 1.87-.34 2.31-.54.88-1.92 1.48-5.66 2.31-.11-2.64-.44-2.81-8.57-4.13v-.82c6.27.38 6.87.38 8.46.38h1.54c.66 0 .83-.16.83-.66v-6.15h-13.76a17.14 17.14 0 00-3.41.27l-.22-2a14.35 14.35 0 003.74.43h13.63v-5.46h-19.07a16.75 16.75 0 00-3.14.22l-.27-1.87a13.13 13.13 0 003.41.38h19.07v-5.11h-14.35a12.46 12.46 0 00-2.8.22l-.26-1.87a8.39 8.39 0 003 .39h14.35v-4.45h-11.43v1.32c0 .38-.11.55-.38.66a20.66 20.66 0 01-2.48.22c-.44 0-.6-.12-.6-.5.11-3.35.16-5 .16-8.13v-3.74c1.59.82 2.09 1.1 3.57 2h11.27V8.3h-18.3a18.55 18.55 0 00-3.41.22l-.22-1.87a12.41 12.41 0 003.68.39h18.2a64.36 64.36 0 00-.28-6.43c5.55.71 5.94.82 5.94 1.42 0 .44-.5.72-2.14 1.21V7h15.77c1.37-1.6 1.76-2 3.13-3.52a47.89 47.89 0 014.68 4 1.08 1.08 0 01.21.5c0 .1-.21.27-.44.27h-23.35v4.29h11.37l2-2c1.37.93 1.76 1.21 3 2.2.38.27.49.44.49.6 0 .39-.21.55-1.59 1.27 0 4 0 4.12.11 6.59 0 .66-.33.83-1.81.88-.44 0-.77.06-1 .06h-.17c-.44 0-.6-.11-.6-.55v-.88zm-3.52-6.93h-11.49v5.66h11.49zm15.39 0h-11.87v5.66h11.87zm.6 12.64h-12.47v5.11h12.47zm-12.47 6.38v3.57l.05 1.92h12.42v-5.49zm56.41-28.69a17.83 17.83 0 011.92-2.31c1.81 1.21 2.31 1.59 4 2.91.28.33.39.5.39.72 0 .44-.5.6-2.26.71a47.12 47.12 0 01-7.64 5.88 3 3 0 011.43 2.42 4.74 4.74 0 01-.6 2.09 2.66 2.66 0 01-1.05 1.15h4.56a27.61 27.61 0 012.26-2.19c1.48 1 1.92 1.37 3.35 2.41.44.39.66.66.66.88v.06c-.06.38-.06.38-2.64.88a47.7 47.7 0 01-5.6 7l-.61-.39c1.21-2.53 1.21-2.58 2.58-7.36h-4.34v13.44c0 7.92.06 12.32.06 13.14 0 2.75-1.21 3.79-5.55 4.73-.22-3.14-.88-3.58-6.33-4.24l.12-.88c1 .06 1.75.11 2.25.11 3.13.22 3.19.22 5.28.28.65-.06.82-.22.82-.72V26.66c-3.35 6.59-5.66 9.45-11.27 13.85l-.55-.61a46.1 46.1 0 007.87-10.9 46 46 0 003.85-10h-5.44a29.32 29.32 0 00-4.67.27l-.5-1.92a26.09 26.09 0 004.89.38h8.52c-.44-.38-.44-.38-1.1-1.64-1.92-3.8-2.74-4.73-6.76-8.14l.56-.61a44.49 44.49 0 017 4 29.49 29.49 0 004.57-5.88H596.8a34.59 34.59 0 00-4.9.28l-.44-1.93a31.3 31.3 0 005.34.39zm12.75 27a24.61 24.61 0 00.66-5.22 8.48 8.48 0 00-.06-1.05c4.89.44 5.83.66 5.83 1.21 0 .17-.17.33-.33.44s-.83.33-1.87.72c-.33 2.09-.49 2.86-.72 3.9h9.13c.82-1.16 1.1-1.49 1.92-2.53 1.54 1 2 1.37 3.46 2.47.56.39.72.61.72.83 0 .44-.66.88-2.09 1.43-.6 7.36-1.37 11-2.86 13.57-1.1 1.93-2.91 2.75-6.32 3-.49-2.91-1.43-3.46-8-4.56l.11-.93c1.21.11 2.14.21 2.75.33 3.57.38 5.93.6 7.36.6.88 0 1.27-.39 1.71-1.82a43 43 0 001.64-11.1h-9.78a23.66 23.66 0 01-5.5 10.23 25.93 25.93 0 01-8.68 6.15 34.66 34.66 0 01-5.33 1.76l-.49-.88a27.89 27.89 0 007.3-3.85 21.71 21.71 0 009.13-13.41H615a45.17 45.17 0 00-5.27.28l-.33-1.93a32.2 32.2 0 005.6.39zm15.39-21.89a34.27 34.27 0 01-7.7 9.56c4.23 2.37 8.13 3.46 14.07 4v.77c-2.09.44-2.8 1.21-3.46 3.57-5.77-2-9-3.68-12.59-6.59-4.61 3.68-10.11 6-18.79 8.08l-.33-.94c7.58-2.58 12.25-5.11 16.92-9.18a28.78 28.78 0 01-6-8.3 32.59 32.59 0 01-5.6 5.68l-.55-.61A38.33 38.33 0 00620 .28c1.21.33 2.2.65 2.8.82 2.31.66 2.7.82 2.7 1.32s-.66.77-2.47.93c-1.38 2.31-1.87 3.19-2.86 4.68h14.12c1.32-1.43 1.76-1.87 3-3.3 2.09 1.54 2.7 2.09 4.73 3.73.05.17.16.39.16.45a.45.45 0 01-.49.38zm-10.34 7.8a28.7 28.7 0 005.86-7.8h-12.7a22.72 22.72 0 006.84 7.8zm38.66 10.5a43.82 43.82 0 01-2 10.83 29.81 29.81 0 01-6.38 11.16l-.66-.61c1.93-3.08 2.47-4.5 3.63-8.85 1.37-5.16 1.76-8.41 1.92-16.43.06-3.9.06-5.22.06-7.75a45.61 45.61 0 00-.28-5.33 30.18 30.18 0 014.57 2.47h8.9c.93-1.1 1.21-1.43 2.14-2.47a28 28 0 013.19 2.47.87.87 0 01.38.55c0 .17-.6.72-1.31 1.16v2.47c0 1 .05 3.41.11 6.1.05 3.57.05 3.57.11 6.54a.73.73 0 01-.39.77 17.22 17.22 0 01-3 .33c-.38 0-.55-.17-.55-.72v-2.69zm-7-23.69a38.18 38.18 0 006.27.44h11.15c1.34-1.43 1.78-1.87 3.1-3.34a57 57 0 014.4 3.9 1.46 1.46 0 01.16.44.54.54 0 01-.55.44h-18.24a32.91 32.91 0 00-5.83.33zm17.42 10.45h-10.09c-.16 9.83-.16 9.83-.22 12h10.33zm12.1 5.71c-.06.72-.06 1.38-.06 1.76-.22 7.53-1.48 12.86-4.34 17.64a26.07 26.07 0 01-6.65 7.59 33.39 33.39 0 01-4.12 2.64l-.5-.83a28.35 28.35 0 006.76-6.92c3.24-4.68 4.73-9.95 5.06-17.81.17-3.68.27-10 .27-13.74 0-1.93 0-2.86-.16-5.06a50.17 50.17 0 014.73 2.91 38.71 38.71 0 008.73-4.12 16 16 0 004.2-3.29c1.16.65 2 1.15 2.64 1.48 1.65.93 2.64 1.7 2.64 2.14s-.44.55-1.16.55a8.11 8.11 0 01-1.81-.27 57.56 57.56 0 01-16 4.67c-.06 2.91-.06 2.91-.22 9.4h13.47c1.27-1.65 1.65-2.2 3-3.85 2 1.87 2.63 2.47 4.56 4.34a.74.74 0 01.27.5c0 .16-.22.27-.66.27h-9.45v14.07c0 4 .05 8.47.22 14.35 0 .49-.11.66-.5.77a9.83 9.83 0 01-2.47.27c-.77 0-1-.11-1.1-.49.17-4 .22-7.15.22-14.51V20.06zM4.25 84.35c0 2.36.15 2.57 2 2.62v.63H0V87c1.82 0 2-.24 2-2.62v-12c0-2.38-.13-2.54-2-2.64v-.61h6.25v.61c-1.87.1-2 .26-2 2.64v6.6l6.09-6.4a3.58 3.58 0 001.21-2c0-.56-.44-.82-1.57-.87v-.61h6.07v.61c-1.43.1-2.61.82-4.33 2.66L7.81 76.5l5.84 8.39c1.07 1.51 1.73 2 3.09 2.15v.56h-4.22c-.72-1.25-1.2-2-1.84-3L6.25 78l-2 2zm45.31 3.2a20.56 20.56 0 01-2.63.26c-.77 0-1-.41-1.08-2.13a6 6 0 01-1.25 1.1 5.09 5.09 0 01-3.33 1.11 3.86 3.86 0 01-2.61-.8 3.64 3.64 0 01-1.13-2.71c0-2 1.28-3.33 3.77-3.89a27.83 27.83 0 014.55-.62v-1.61a5.11 5.11 0 00-.36-2.33 2.13 2.13 0 00-2.09-1c-1.7 0-2.57.77-2.67 2.36 0 .54-.08.71-.28.87a1.63 1.63 0 01-.9.21c-.87 0-1.25-.24-1.25-.77a3 3 0 011.7-2.46 7.67 7.67 0 013.74-.82c1.63 0 2.82.38 3.43 1.13a4.34 4.34 0 01.83 2.89c0 .08 0 .08-.05 2.58v3.61a5.84 5.84 0 00.28 2.2c.15.21.46.29 1.43.29zm-3.71-7.09a11.22 11.22 0 00-4.3.92 3 3 0 00-1.72 2.92c0 1.62.88 2.72 2.15 2.72a3.93 3.93 0 003.28-1.87 7.19 7.19 0 00.59-3.48zm30.51-5.14c-2.78 0-3.65.69-4.22 3.35l-.71-.07.4-3.92H81v.74L73.34 87h2.39c3.17 0 4.35-.93 5-4l.71.07-.54 4.53h-10V87l7.7-11.65zm36.41 12.46a20.07 20.07 0 01-.13-2.63 5.21 5.21 0 01-4.55 2.76 3.41 3.41 0 01-3.41-2.15 12.6 12.6 0 01-.36-4v-4.19c0-1.33-.1-1.87-.38-2.1s-.38-.2-.87-.23h-.46v-.56l4-.26c-.13 2.38-.16 3-.16 4.76v2.23c0 2.59.06 3.28.36 4.17a2 2 0 002.05 1.42 3.68 3.68 0 003.32-2.49 6.21 6.21 0 00.46-3v-3.94c0-1.35-.07-1.84-.38-2.07a1.27 1.27 0 00-.87-.26h-.46v-.56l4-.26c-.07 1.92-.12 3.61-.12 4.76V84c0 2.56.23 3 1.56 3h.18v.56zm28.54-3.38c0 2.38.13 2.59 1.85 2.64v.56h-5.71V87c1.69-.05 1.81-.26 1.81-2.64V71.94c0-2.18-.1-2.3-1.81-2.33v-.56l4-.21c-.11 1.72-.16 3.79-.16 5.12v8.12l4-4.41a2.81 2.81 0 00.9-1.59c0-.53-.49-.79-1.62-.84v-.56h5.66v.56a3.73 3.73 0 00-1.71.56 9.44 9.44 0 00-2.51 2.28l-1.33 1.44 3.58 5.63c.87 1.38 1.31 1.71 2.43 1.89v.56h-3.48c-.26-.53-1.07-2-1.33-2.45l-2.61-4.25-2 2.23zm34.18-10c-.08 1.48-.15 3.71-.15 4.78v5.22c0 2.38.12 2.59 1.84 2.64v.56h-5.84V87c1.77-.05 1.9-.26 1.9-2.64v-6.79c0-1.28-.11-1.87-.39-2.1s-.61-.23-1.51-.23v-.56zm-1.28-5.4a1.45 1.45 0 11-1.46 1.43 1.43 1.43 0 011.46-1.43zm52.5 18c2.07 0 2.22-.26 2.22-2.62v-12c0-2.38-.15-2.54-2.22-2.64v-.61h6.81v.61c-2.1.1-2.25.26-2.25 2.64v12c0 2.36.18 2.57 2.25 2.62v.63h-6.81zm32-2.6c0 2.38.12 2.59 1.84 2.64v.56h-5.71V87c1.69-.05 1.82-.26 1.82-2.64V71.94c0-2.18-.1-2.3-1.82-2.33v-.56l4-.21c-.1 1.72-.15 3.79-.15 5.12v8.12l4-4.41a2.84 2.84 0 00.89-1.59c0-.53-.49-.79-1.61-.84v-.56h5.66v.56a3.73 3.73 0 00-1.72.56 9.44 9.44 0 00-2.51 2.28l-1.33 1.44 3.59 5.63c.86 1.38 1.3 1.71 2.43 1.89v.56h-3.48c-.26-.53-1.08-2-1.34-2.45l-2.57-4.25-2 2.23zm39.88 3.38a20.07 20.07 0 01-.13-2.63 5.21 5.21 0 01-4.55 2.76 3.41 3.41 0 01-3.41-2.15 12.6 12.6 0 01-.36-4v-4.19c0-1.33-.1-1.87-.38-2.1s-.38-.2-.87-.23h-.46v-.56l4-.26c-.13 2.38-.16 3-.16 4.76v2.23c0 2.59.06 3.28.36 4.17a2 2 0 002.05 1.42 3.68 3.68 0 003.32-2.47 6.21 6.21 0 00.46-3v-3.96c0-1.35-.07-1.84-.38-2.07a1.27 1.27 0 00-.87-.26h-.46v-.56l4-.26c-.07 1.92-.12 3.61-.12 4.76V84c0 2.56.23 3 1.56 3h.18v.56zM327.34 84c0 1.51.07 2.18.33 2.53a1.44 1.44 0 001.26.54 2.92 2.92 0 001.61-.46l.23.67a5.54 5.54 0 01-2.59.64 2.8 2.8 0 01-2.64-1.26c-.28-.51-.35-1.07-.35-3v-8.3h-1.61v-.59c1.5-.13 2.27-1.13 2.66-3.53l1.17-.33c-.05 1.1-.07 2.07-.07 3.76h3.07v.69h-3.07zm36.5 3.55a20.56 20.56 0 01-2.63.26c-.77 0-1-.41-1.08-2.13a5.76 5.76 0 01-1.26 1.1 5 5 0 01-3.32 1.11 3.84 3.84 0 01-2.61-.8 3.64 3.64 0 01-1.13-2.71c0-2 1.28-3.33 3.76-3.89a28.12 28.12 0 014.56-.62v-1.61a5.11 5.11 0 00-.36-2.33 2.14 2.14 0 00-2.1-1c-1.69 0-2.56.77-2.66 2.36 0 .54-.08.71-.28.87a1.63 1.63 0 01-.9.21c-.87 0-1.25-.24-1.25-.77a3 3 0 011.74-2.46 7.67 7.67 0 013.74-.82 3.44 3.44 0 014.17 4c0 .08 0 .08-.05 2.58v3.61a5.84 5.84 0 00.28 2.2c.15.21.46.29 1.43.29zm-3.71-7.09a11.22 11.22 0 00-4.3.92 3 3 0 00-1.72 2.92c0 1.62.88 2.72 2.15 2.72a3.93 3.93 0 003.28-1.87 7.19 7.19 0 00.59-3.48zm56.67 3.02a7 7 0 00-.48 2.1c0 .92.66 1.34 2.15 1.39v.63h-6V87c1.46 0 2.3-.9 3.27-3.49l5.46-14.43 1.58-.18 5.43 15.46c.72 2.1 1.2 2.59 2.69 2.64v.63h-6.6V87c1.31 0 1.85-.36 1.85-1.1a5.39 5.39 0 00-.31-1.47l-1.07-3.22h-7.15zm4.51-12.21l-3.33 9h6.45zm34.09 3.13c.06 1.28.08 1.61.08 2.15v.82c.85-2 2.23-3.05 3.74-3.05a1.77 1.77 0 011.95 1.59c0 .64-.54 1-1.36 1-.56 0-.79-.16-.95-.64s-.31-.72-.71-.72a2.51 2.51 0 00-1.93 1.53 6.83 6.83 0 00-.69 3.26v4c0 2.41.13 2.59 1.85 2.64v.56h-5.86V87c1.71-.05 1.86-.26 1.86-2.64v-6.81c0-1.93-.3-2.31-1.76-2.31v-.56zm38.03 9.93a5.46 5.46 0 01-5.28 3.61c-3.61 0-6.12-2.72-6.12-6.63 0-4.18 2.54-7 6.27-7a5.74 5.74 0 013.79 1.3 3.07 3.07 0 011.11 2c0 .48-.49.79-1.29.79a1.39 1.39 0 01-.87-.26c-.15-.15-.15-.2-.2-.86a2.57 2.57 0 00-2.69-2.28c-2.33 0-3.71 2.15-3.71 5.84 0 3.89 1.61 6.27 4.28 6.27 1.84 0 3.24-1 4.11-3.1zm24.9-7.27c1.2-2 2.46-2.74 4.56-2.74 1.87 0 3.12.64 3.74 1.84a8 8 0 01.46 3.12v5.12c0 2.38.12 2.59 1.84 2.64v.56h-5.81V87c1.74-.05 1.87-.23 1.87-2.64v-5.1a6.39 6.39 0 00-.41-2.76 2.28 2.28 0 00-2.25-1.23 3.41 3.41 0 00-2.54 1 5.48 5.48 0 00-1.2 2.1 5.72 5.72 0 00-.26 1.91v4.12c0 2.41.13 2.59 1.84 2.64v.56h-5.81V87c1.74-.05 1.87-.23 1.87-2.64V71.94c0-2.18-.1-2.3-1.87-2.33v-.56l4.1-.21c-.1 2-.13 2.9-.13 5.12zm35.79-2.66c-.08 1.48-.15 3.71-.15 4.78v5.22c0 2.38.12 2.59 1.84 2.64v.56H550V87c1.77-.05 1.9-.26 1.9-2.64v-6.79c0-1.28-.11-1.87-.39-2.1s-.61-.23-1.51-.23v-.56zm-1.28-5.4a1.45 1.45 0 11-1.46 1.43 1.44 1.44 0 011.46-1.43zM581 84a5 5 0 00.33 2.53 1.44 1.44 0 001.26.54 2.92 2.92 0 001.61-.46l.23.67a5.54 5.54 0 01-2.59.64 2.78 2.78 0 01-2.63-1.26c-.28-.51-.36-1.07-.36-3v-8.3h-1.61v-.59c1.5-.13 2.27-1.13 2.66-3.53l1.18-.33C581 72 581 73 581 74.68h3v.69h-3zm26.9-3.61a10.34 10.34 0 00.59 3.84 3.87 3.87 0 003.84 2.77c1.82 0 3.2-.94 4.23-2.89l.58.33a5.55 5.55 0 01-5.4 3.46c-3.66 0-6.17-2.72-6.17-6.63 0-4.15 2.46-7 6.07-7a4.94 4.94 0 014.89 3.25 8 8 0 01.41 2.82zm6.81-.69a6.6 6.6 0 00-.49-2.85 2.77 2.77 0 00-2.63-1.85 3.31 3.31 0 00-3 2 7.37 7.37 0 00-.59 2.7zm35.54 4.63a5.46 5.46 0 01-5.25 3.61c-3.61 0-6.12-2.72-6.12-6.63 0-4.18 2.54-7 6.27-7a5.74 5.74 0 013.79 1.3 3.07 3.07 0 011.11 2c0 .48-.49.79-1.28.79a1.4 1.4 0 01-.88-.26c-.15-.15-.15-.2-.2-.86A2.57 2.57 0 00645 75c-2.33 0-3.71 2.15-3.71 5.84 0 3.89 1.61 6.27 4.28 6.27 1.84 0 3.25-1 4.11-3.1zM675.3 84c0 1.51.08 2.18.34 2.53a1.41 1.41 0 001.25.54 2.92 2.92 0 001.61-.46l.23.67a5.48 5.48 0 01-2.58.64 2.8 2.8 0 01-2.64-1.26c-.28-.51-.36-1.07-.36-3v-8.3h-1.61v-.59c1.51-.13 2.28-1.13 2.66-3.53l1.18-.33c0 1.1-.08 2.07-.08 3.76h3.08v.69h-3.08zm24.83-.44h.8a4 4 0 00.72 2.38 3.26 3.26 0 002.79 1.38c1.74 0 2.79-.89 2.79-2.4a2 2 0 00-.62-1.49c-.46-.38-.53-.41-2.86-1.43-2.77-1.2-3.62-2.13-3.62-3.87a4 4 0 01.7-2.35 4 4 0 013.17-1.46 11 11 0 012.38.31c.21 0 .39.05.54.05a5.1 5.1 0 001.23-.18l-.13 4h-.84c0-2.27-1.18-3.63-3-3.63-1.59 0-2.61.89-2.61 2.27a1.62 1.62 0 00.69 1.39 12.45 12.45 0 002.66 1.33 7.46 7.46 0 013 1.74 3.58 3.58 0 01.84 2.43 3.67 3.67 0 01-4 3.87 12.93 12.93 0 01-2.56-.31 6.88 6.88 0 00-1-.08 7.64 7.64 0 00-1.15.11z" fill="#231815" data-name="レイヤー 1"/></g></svg>